<svg xmlns="http://www.w3.org/2000/svg" viewBox="0 0 213.45 213.45"><defs><style>.cls-1{fill:#036c9c;}</style></defs><g id="Layer_2" data-name="Layer 2"><g id="Layer_1-2" data-name="Layer 1"><path class="cls-1" d="M187.31,25.73,188.15,0H26.58l-.87,26.15L0,25.3V186.87l26.14.87-.84,25.71H186.87l.87-26.15c3.9.14,9.84.34,19.06.63l6.65.26V26.59Zm-12.85.08a80.68,80.68,0,0,0-57,30.71L115,59.67l10.1,7.91,2.47-3.15a67.86,67.86,0,0,1,46.22-25.68c-1.19,11.81-4.51,21.92-10.11,30.8a65.67,65.67,0,0,1-27.82,24.66,62.78,62.78,0,0,1-18,5.36c-1.75.24-3.54.42-5.28.56A85.86,85.86,0,0,0,111.06,89a74.66,74.66,0,0,0-8.48-21.81A81,81,0,0,0,70,35.67a80.61,80.61,0,0,0-31.49-9L39,12.83h135.9ZM39,187.65a80.63,80.63,0,0,0,57-30.72l2.47-3.15-10.1-7.91L85.89,149a67.77,67.77,0,0,1-46.36,25.71,67.75,67.75,0,0,1,34-52.71A62.29,62.29,0,0,1,91.6,115a68.4,68.4,0,0,1,9-1.2c.15,1.86.35,3.82.62,5.8a75.63,75.63,0,0,0,6.45,21.71,78.38,78.38,0,0,0,29.44,33.27c11,6.91,23.42,10.91,37.86,12.16l-.46,13.92H38.56Zm20.68-89.2,7.91-10.09-3.15-2.47A67.74,67.74,0,0,1,38.74,39.54a67.72,67.72,0,0,1,52.69,34,61.61,61.61,0,0,1,7.08,18A72.82,72.82,0,0,1,99.73,101,86.42,86.42,0,0,0,89,102.39a74.52,74.52,0,0,0-21.79,8.49,80.58,80.58,0,0,0-40.56,64l-13.81-.45V38.56l13,.43A80.51,80.51,0,0,0,56.52,96ZM153.78,115l-7.91,10.12,3.15,2.47a67.78,67.78,0,0,1,25.68,46.2c-11.81-1.19-21.93-4.51-30.8-10.11a65.59,65.59,0,0,1-24.66-27.82,63.27,63.27,0,0,1-5.36-18c-.23-1.61-.39-3.26-.52-4.86,2-.16,4.09-.36,6.17-.66a75.27,75.27,0,0,0,21.74-6.44,78.57,78.57,0,0,0,33.26-29.45c6.93-11,10.92-23.41,12.15-37.85l13.94.46V174.89l-13-.42a80.57,80.57,0,0,0-30.71-57Z"/></g></g></svg>