<svg xmlns="http://www.w3.org/2000/svg" viewBox="0 0 206.79 26.29"><defs><style>.cls-1{fill:#036c9c;}</style></defs><g id="Layer_2" data-name="Layer 2"><g id="Layer_1-2" data-name="Layer 1"><path class="cls-1" d="M7.61,25.83V6.42H0v-6H21.83v6H14.22V25.83Z"/><path class="cls-1" d="M26.29,25.83V.46H32.9V25.83Z"/><path class="cls-1" d="M62.08,0h2.11V25.83H57.58V15.18l-5.27,6.15H50.2L45,15.22V25.83H38.36V0h2.11L51.28,13.18Z"/><path class="cls-1" d="M70,25.83V.46H87.64v6h-11v3.5h7.85v5.53H76.64v4.42H88.1v6Z"/><path class="cls-1" d="M91.33,20.6l4.46-3.38a9.92,9.92,0,0,0,2.53,2.44,5.72,5.72,0,0,0,3.12.83c1.74,0,2.61-.62,2.61-1.85a1.53,1.53,0,0,0-.5-1.23,9.63,9.63,0,0,0-2.07-1.11l-2.62-1.16q-6.42-2.84-6.42-7.64a6.73,6.73,0,0,1,2.48-5.42A9.6,9.6,0,0,1,101.32,0q6.15,0,8.69,5.11l-4.42,3.38a7.39,7.39,0,0,0-1.92-2,4.06,4.06,0,0,0-2.27-.64c-1.51,0-2.27.54-2.27,1.62a1.46,1.46,0,0,0,.48,1.13,5.78,5.78,0,0,0,1.71.94l2.92,1.23a13.35,13.35,0,0,1,4.94,3.21,6.54,6.54,0,0,1,1.56,4.44,7.09,7.09,0,0,1-2.63,5.77,10.23,10.23,0,0,1-6.67,2.15,12,12,0,0,1-6.06-1.52A10,10,0,0,1,91.33,20.6Z"/><path class="cls-1" d="M139,0h2.11V25.83h-6.61V15.18l-5.26,6.15h-2.12l-5.22-6.11V25.83h-6.62V0h2.12l10.8,13.18Z"/><path class="cls-1" d="M147.33,25.83V.46h6.61V25.83Z"/><path class="cls-1" d="M166.4,25.83V6.42h-7.61v-6h21.83v6H173V25.83Z"/><path class="cls-1" d="M184.31,25.83V.46h6.61V9.72h9.26V.46h6.61V25.83h-6.61V15.68h-9.26V25.83Z"/></g></g></svg>